<svg width="200" height="200" viewBox="0 0 200 200" fill="none" xmlns="http://www.w3.org/2000/svg">
<path d="M100 192C150.81 192 192 150.81 192 100C192 49.1898 150.81 8 100 8C49.1898 8 8 49.1898 8 100C8 150.81 49.1898 192 100 192Z" fill="#F2EEFF"/>
<path d="M62 142L70 188C70 190.667 71.3333 192 74 192H126C128.667 192 130 190.667 130 188L138 142H62Z" fill="#7C5CFF"/>
<path d="M138 132H62C59.7909 132 58 133.791 58 136V142C58 144.209 59.7909 146 62 146H138C140.209 146 142 144.209 142 142V136C142 133.791 140.209 132 138 132Z" fill="#5B3FE8"/>
<path d="M100 132C100 110.667 100 93.3333 100 80" stroke="#2EC07A" stroke-width="5" stroke-linecap="round"/>
<path d="M100 105C80 99 66 85.3333 58 64C75.3333 68 89.3333 78.6667 100 96V105Z" fill="#2EC07A"/>
<path opacity="0.95" d="M100 92C120 86.6667 134 74.6667 142 56C124.667 58.6667 110.667 67.3333 100 82V92Z" fill="#2EC07A"/>
<path d="M100 77.5C101.933 77.5 103.5 75.933 103.5 74C103.5 72.067 101.933 70.5 100 70.5C98.067 70.5 96.5 72.067 96.5 74C96.5 75.933 98.067 77.5 100 77.5Z" fill="#FFCB47"/>
<path d="M152 45C153.657 45 155 43.6569 155 42C155 40.3431 153.657 39 152 39C150.343 39 149 40.3431 149 42C149 43.6569 150.343 45 152 45Z" fill="#FFCB47"/>
</svg>
