<svg width="70" height="28" viewBox="0 0 70 28" fill="none" xmlns="http://www.w3.org/2000/svg">
<path d="M12.8603 15.6063L9.06324 15.7072C9.02378 15.4379 8.91665 15.1995 8.74192 14.9919C8.56713 14.7787 8.33881 14.6132 8.05695 14.4954C7.78066 14.372 7.45935 14.3103 7.09288 14.3103C6.61367 14.3103 6.20494 14.4057 5.86667 14.5964C5.53404 14.7872 5.37055 15.0452 5.37619 15.3706C5.37055 15.6231 5.47203 15.8419 5.68062 16.027C5.89486 16.2122 6.2754 16.3608 6.82226 16.473L9.32539 16.9443C10.6221 17.1911 11.5861 17.6007 12.2176 18.1729C12.8546 18.7451 13.1759 19.5025 13.1816 20.4451C13.1759 21.3314 12.911 22.1029 12.3867 22.7592C11.868 23.4157 11.1577 23.9262 10.2556 24.2908C9.3536 24.6499 8.32192 24.8295 7.16054 24.8295C5.30572 24.8295 3.84273 24.4507 2.77156 23.6933C1.70604 22.9304 1.09716 21.9093 0.944946 20.6302L5.02947 20.5292C5.11967 21.0004 5.35364 21.3595 5.73137 21.6064C6.10909 21.8532 6.59112 21.9766 7.17742 21.9766C7.70737 21.9766 8.13869 21.8785 8.47133 21.6821C8.80389 21.4857 8.97306 21.2248 8.97869 20.8995C8.97306 20.6077 8.84336 20.3749 8.58971 20.201C8.33599 20.0215 7.9385 19.8813 7.39731 19.7802L5.13095 19.351C3.82864 19.1154 2.85895 18.6807 2.22188 18.0467C1.58482 17.4071 1.26911 16.5936 1.27475 15.6063C1.26911 14.7422 1.50026 14.0045 1.96819 13.393C2.43612 12.7759 3.10137 12.3046 3.96394 11.9792C4.82651 11.6538 5.84412 11.4912 7.01677 11.4912C8.77576 11.4912 10.1626 11.8586 11.1774 12.5935C12.1922 13.3229 12.7531 14.3271 12.8603 15.6063ZM20.3011 24.8295C18.9424 24.8295 17.7698 24.5629 16.7832 24.03C15.8022 23.4914 15.0468 22.7256 14.5169 21.7326C13.9925 20.734 13.7304 19.5474 13.7304 18.1729C13.7304 16.8377 13.9954 15.6707 14.5253 14.6722C15.0552 13.6679 15.8022 12.8881 16.7663 12.3327C17.7303 11.7716 18.8663 11.4912 20.1743 11.4912C21.0988 11.4912 21.9445 11.6342 22.7112 11.9203C23.478 12.2065 24.1404 12.63 24.6986 13.191C25.2567 13.7521 25.6908 14.4449 26.0008 15.2697C26.311 16.0887 26.466 17.0284 26.466 18.0888V19.1154H15.1764V16.7254H22.6183C22.6126 16.2879 22.5083 15.8979 22.3053 15.5557C22.1024 15.2135 21.8233 14.947 21.4681 14.7563C21.1186 14.56 20.7155 14.4617 20.2588 14.4617C19.7966 14.4617 19.3822 14.5656 19.0157 14.7731C18.6493 14.9751 18.3589 15.2528 18.1447 15.6063C17.9305 15.9541 17.8177 16.3496 17.8064 16.7928V19.2248C17.8064 19.7522 17.9108 20.215 18.1193 20.6133C18.3279 21.0061 18.6239 21.3118 19.0073 21.5307C19.3906 21.7494 19.8473 21.8588 20.3772 21.8588C20.7437 21.8588 21.0763 21.8083 21.3751 21.7073C21.6739 21.6064 21.9304 21.4577 22.1447 21.2613C22.3589 21.065 22.5196 20.8238 22.6267 20.5376L26.4237 20.647C26.2658 21.4942 25.9191 22.2319 25.3835 22.8602C24.8536 23.483 24.1573 23.9683 23.2947 24.3161C22.4322 24.6583 21.4343 24.8295 20.3011 24.8295ZM33.6616 24.8295C32.3029 24.8295 31.1303 24.5629 30.1437 24.03C29.1627 23.4914 28.4073 22.7256 27.8773 21.7326C27.353 20.734 27.0908 19.5474 27.0908 18.1729C27.0908 16.8377 27.3558 15.6707 27.8858 14.6722C28.4157 13.6679 29.1627 12.8881 30.1267 12.3327C31.0908 11.7716 32.2268 11.4912 33.5348 11.4912C34.4593 11.4912 35.305 11.6342 36.0717 11.9203C36.8384 12.2065 37.5009 12.63 38.059 13.191C38.6172 13.7521 39.0512 14.4449 39.3613 15.2697C39.6714 16.0887 39.8265 17.0284 39.8265 18.0888V19.1154H28.5369V16.7254H35.9787C35.973 16.2879 35.8688 15.8979 35.6658 15.5557C35.4628 15.2135 35.1838 14.947 34.8286 14.7563C34.4791 14.56 34.076 14.4617 33.6193 14.4617C33.157 14.4617 32.7427 14.5656 32.3762 14.7731C32.0097 14.9751 31.7194 15.2528 31.5052 15.6063C31.2909 15.9541 31.1782 16.3496 31.1669 16.7928V19.2248C31.1669 19.7522 31.2712 20.215 31.4798 20.6133C31.6884 21.0061 31.9844 21.3118 32.3677 21.5307C32.7511 21.7494 33.2077 21.8588 33.7377 21.8588C34.1042 21.8588 34.4368 21.8083 34.7356 21.7073C35.0344 21.6064 35.2909 21.4577 35.5051 21.2613C35.7194 21.065 35.88 20.8238 35.9872 20.5376L39.7842 20.647C39.6263 21.4942 39.2796 22.2319 38.744 22.8602C38.2141 23.483 37.5178 23.9683 36.6553 24.3161C35.7927 24.6583 34.7948 24.8295 33.6616 24.8295ZM45.6944 24.7705C44.7359 24.7705 43.8649 24.5236 43.0813 24.03C42.2977 23.5363 41.6718 22.7957 41.2039 21.8083C40.736 20.821 40.502 19.5951 40.502 18.1308C40.502 16.6104 40.7445 15.3594 41.2293 14.3776C41.7141 13.3958 42.3484 12.6693 43.132 12.1981C43.9213 11.7268 44.7698 11.4912 45.6774 11.4912C46.3596 11.4912 46.9431 11.609 47.428 11.8446C47.9128 12.0746 48.3131 12.3719 48.6288 12.7366C48.9445 13.1013 49.1842 13.48 49.3476 13.8727H49.4322V7.35077H53.5675V24.5854H49.4744V22.49H49.3476C49.1728 22.8883 48.9248 23.2614 48.6034 23.6092C48.2821 23.957 47.879 24.2376 47.3941 24.4507C46.9149 24.6639 46.3483 24.7705 45.6944 24.7705ZM47.132 21.5643C47.6337 21.5643 48.0622 21.4241 48.4174 21.1435C48.7726 20.8574 49.046 20.4563 49.2377 19.9401C49.4294 19.424 49.5252 18.8181 49.5252 18.1224C49.5252 17.4155 49.4294 16.8069 49.2377 16.2963C49.0516 15.7857 48.7782 15.3931 48.4174 15.1182C48.0622 14.8432 47.6337 14.7058 47.132 14.7058C46.6189 14.7058 46.1849 14.846 45.8297 15.1266C45.4745 15.4071 45.2039 15.8026 45.0178 16.3131C44.8374 16.8237 44.7472 17.4267 44.7472 18.1224C44.7472 18.8181 44.8402 19.424 45.0263 19.9401C45.2123 20.4563 45.4801 20.8574 45.8297 21.1435C46.1849 21.4241 46.6189 21.5643 47.132 21.5643ZM55.1944 24.5854V11.6594H59.3297V24.5854H55.1944ZM57.2663 10.1531C56.6856 10.1531 56.1866 9.96235 55.7694 9.58087C55.3522 9.19372 55.1437 8.7281 55.1437 8.18394C55.1437 7.64532 55.3522 7.1853 55.7694 6.8038C56.1866 6.41669 56.6856 6.22314 57.2663 6.22314C57.8526 6.22314 58.3515 6.41669 58.7631 6.8038C59.1803 7.1853 59.3888 7.64532 59.3888 8.18394C59.3888 8.7281 59.1803 9.19372 58.7631 9.58087C58.3515 9.96235 57.8526 10.1531 57.2663 10.1531ZM68.3054 11.6594V14.689H60.1109V11.6594H68.3054ZM61.8277 8.56263H65.9629V20.5208C65.9629 20.7732 66.0024 20.978 66.0813 21.1351C66.1659 21.2866 66.2871 21.396 66.445 21.4633C66.6028 21.525 66.7917 21.5559 67.0116 21.5559C67.1694 21.5559 67.3357 21.5419 67.5105 21.5138C67.6909 21.4801 67.8262 21.4521 67.9164 21.4297L68.5422 24.4002C68.3449 24.4564 68.0658 24.5264 67.705 24.6107C67.3498 24.6948 66.9241 24.7481 66.428 24.7705C65.4583 24.8154 64.6268 24.7032 63.9334 24.4339C63.2456 24.159 62.7184 23.7326 62.352 23.1548C61.9911 22.5769 61.8164 21.8504 61.8277 20.9752V8.56263Z" fill="#1E1A2E"/>
<path opacity="0.95" d="M42.8234 12.3952C42.8234 7.88793 38.8601 6.19769 38.2939 3.38062C41.1248 3.94403 42.8234 5.63427 42.8234 9.01476V12.3952Z" fill="#2EC07A"/>
<path opacity="0.85" d="M42.8239 12.3952C42.8239 7.88793 46.7871 6.19769 47.3533 3.38062C44.5224 3.94403 42.8239 5.63427 42.8239 9.01476V12.3952Z" fill="#2EC07A"/>
<path d="M43.1634 8.22574C43.1634 8.03903 43.0113 7.8877 42.8237 7.8877C42.6361 7.8877 42.484 8.03903 42.484 8.22574V12.057C42.484 12.2437 42.6361 12.395 42.8237 12.395C43.0113 12.395 43.1634 12.2437 43.1634 12.057V8.22574Z" fill="#2EC07A"/>
<path d="M64.5474 9.02872C64.5474 6.44908 60.6589 5.15926 60.6589 1.93469C63.2512 2.57961 65.1954 3.86943 64.5474 6.44908V9.02872Z" fill="#7C5CFF"/>
<path d="M64.5476 9.02872C64.5476 6.44908 68.436 5.15926 68.436 1.93469C65.8438 2.57961 63.8995 3.86943 64.5476 6.44908V9.02872Z" fill="#2EC07A"/>
</svg>
